<!DOCTYPE svg PUBLIC "-//W3C//DTD SVG 1.1//EN" "http://www.w3.org/Graphics/SVG/1.1/DTD/svg11.dtd">
<!-- Uploaded to: SVG Repo, www.svgrepo.com, Transformed by: SVG Repo Mixer Tools -->
<svg width="800px" height="800px" viewBox="0 0 36 36" xmlns="http://www.w3.org/2000/svg" xmlns:xlink="http://www.w3.org/1999/xlink" aria-hidden="true" role="img" class="iconify iconify--twemoji" preserveAspectRatio="xMidYMid meet" fill="#000000">
<g id="SVGRepo_bgCarrier" stroke-width="0"/>
<g id="SVGRepo_tracerCarrier" stroke-linecap="round" stroke-linejoin="round"/>
<g id="SVGRepo_iconCarrier"> <path fill="#81c784" d="M36 18c0 9.941-8.059 18-18 18S0 27.941 0 18S8.059 0 18 0s18 8.059 18 18z"> </path> <path fill="#f8f9fa" d="M30 18c0 6.628-5.372 12-12 12S6 24.628 6 18S11.372 6 18 6s12 5.372 12 12z"> </path> <path fill="#81c784" d="M29 18c0 6.075-4.925 11-11 11c-6.076 0-11-4.925-11-11c0-6.076 4.925-11 11-11s11 4.924 11 11z"> </path> <g fill="#4caf50"> <circle cx="1" cy="1" r="1"> </circle> <path d="M0 1h2v7H0z"> </path> <circle cx="5" cy="1" r="1"> </circle> <path d="M4 1h2v7H4z"> </path> <circle cx="9" cy="1" r="1"> </circle> <path d="M8 1h2v7H8zM3 14h4v20H3z"> </path> <circle cx="5" cy="34" r="2"> </circle> <path d="M8 8a1 1 0 0 1-2 0H4a1 1 0 0 1-2 0H0c0 3.866 1 7 5 7s5-3.134 5-7H8z"> </path> <circle cx="1" cy="8" r="1"> </circle> <circle cx="5" cy="8" r="1"> </circle> <circle cx="9" cy="8" r="1"> </circle> </g> <g fill="#4caf50"> <path d="M30 14h4v20h-4z"> </path> <circle cx="32" cy="34" r="2"> </circle> <path d="M32 0c1 0 2 1 2 3v16s-7 2-7-8c0-6 3-11 5-11z"> </path> </g> </g>
</svg>